# xmcd CD database file
#
# Track frame offsets:
#	150
#	33001
#	55690
#	79671
#	108803
#	136642
#	155772
#	180029
#	207390
#	231959
#	253182
#	275336
#	295835
#
# Disc length: 4100 seconds
#
# Revision: 0
# Processed by: cddbd v1.5.1PL0 Copyright (c) Steve Scherf et al.
# Submitted via: CDex 1.51
#
DISCID=a410020d
DTITLE=PHIL WOODS - This Is How I Fel About Quincy
DYEAR=2004
DGENRE=Jazz
TTITLE0=Stockholm Sweetnin'
TTITLE1=The Quintesence
TTITLE2=Meet Benny Bailey
TTITLE3=For Lena And Lennie
TTITLE4=The Pawnbroker
TTITLE5=Hard Sock Dace
TTITLE6=The Midnight Sun Will Never Set
TTITLE7=Q's Delight
TTITLE8=Evening In Paris
TTITLE9=Jessica's Day
TTITLE10=Birth Of A Band
TTITLE11=Lullabye For Jolie
TTITLE12=Belly Roll
EXTD=YEAR: 2004
EXTT0=
EXTT1=
EXTT2=
EXTT3=
EXTT4=
EXTT5=
EXTT6=
EXTT7=
EXTT8=
EXTT9=
EXTT10=
EXTT11=
EXTT12=
PLAYORDER=
